:version 1.10
:name ASF
:units
  mass 1
  length 1
  angle deg
:documentation
  ASF file generated by Kaydara
:root
  axis xyz
  order  tx ty tz rx ry rz
  position 0 0 0
  orientation 0 0 0
:bonedata
  begin
    id 1
    name abdomenDummy
    direction 1 -1.27917e-005 -1.26829e-007
    length 1.79048
    axis 0 0 0 xyz
  end
  begin
    id 2
    name abdomen
    direction 0.987238 0.159249 -9.68575e-008
    length 8.61378
    axis 2.73208e-005 5.54953e-006 9.16328 xyz
    dof rx ry rz
  end
  begin
    id 3
    name chest
    direction 0 0 0
    length 0
    axis 2.65071e-005 8.63688e-006 2.59796 xyz
    dof rx ry rz
  end
  begin
    id 4
    name neckDummyDummy
    direction 0.998972 0.0453274 -1.50742e-007
    length 9.56202
    axis 2.65071e-005 8.63688e-006 2.59796 xyz
  end
  begin
    id 5
    name neckDummy
    direction 0.99977 0.0214525 -1.61748e-007
    length 1.93574
    axis 2.62932e-005 9.26758e-006 1.22924 xyz
    dof rx ry rz
  end
  begin
    id 6
    name neck
    direction 0.99928 -0.0379406 -1.88707e-007
    length 3.70367
    axis 2.56966e-005 1.08122e-005 -2.17436 xyz
    dof rx ry rz
  end
  begin
    id 7
    name head
    direction 0.992648 -0.121037 -2.25408e-007
    length 6.35158
    axis 2.47068e-005 1.29149e-005 -6.95196 xyz
    dof rx ry rz
  end
  begin
    id 8
    name figureHair
    direction -0.86681 -0.498639 -7.83376e-008
    length 8.29884
    axis -2.7515e-005 4.48842e-006 -150.09 xyz
    dof rx ry rz
  end
  begin
    id 9
    name lCollarDummy
    direction 0.994611 0.0451299 -0.0933417
    length 9.60395
    axis 2.65071e-005 8.63688e-006 2.59796 xyz
  end
  begin
    id 10
    name lCollar
    direction 0.0384146 0.00127577 -0.999261
    length 6.95318
    axis 90.4899 87.7973 1.90202 xyz
    dof rx ry rz
  end
  begin
    id 11
    name lShldr
    direction -0.030648 0.0920515 -0.995282
    length 9.61158
    axis -161.793 84.4324 108.415 xyz
    dof rx ry rz
  end
  begin
    id 12
    name lForeArm
    direction 0.000163956 -0.0977586 -0.99521
    length 8.6068
    axis 0.134773 84.3899 -89.8525 xyz
    dof rx ry rz
  end
  begin
    id 13
    name lHand
    direction -0.0190533 -0.1444 -0.989336
    length 7.61479
    axis -7.3729 81.6249 -97.517 xyz
    dof rx ry rz
  end
  begin
    id 14
    name rCollarDummy
    direction 0.994871 0.0442627 0.0909555
    length 9.60761
    axis 2.65071e-005 8.63688e-006 2.59796 xyz
  end
  begin
    id 15
    name rCollar
    direction 0.0334251 -4.74072e-007 0.999441
    length 6.97058
    axis -178.152 -88.0845 -0.000674207 xyz
    dof rx ry rz
  end
  begin
    id 16
    name rShldr
    direction -0.026922 0.0719509 0.997045
    length 9.60913
    axis 71.2822 -85.594 110.514 xyz
    dof rx ry rz
  end
  begin
    id 17
    name rForeArm
    direction 0.00134679 -0.118986 0.992895
    length 8.57176
    axis -88.7923 -83.1659 -89.3516 xyz
    dof rx ry rz
  end
  begin
    id 18
    name rHand
    direction -0.0185183 -0.0768601 0.99687
    length 7.69687
    axis -74.5596 -85.4655 -103.546 xyz
    dof rx ry rz
  end
  begin
    id 19
    name lThighDummy
    direction -0.236086 -0.0385456 -0.970967
    length 4.99155
    axis 0 0 0 xyz
  end
  begin
    id 20
    name lThigh
    direction -0.993968 0.0148998 -0.108653
    length 13.572
    axis -91.4001 6.23768 179.141 xyz
    dof rx ry rz
  end
  begin
    id 21
    name lShin
    direction -0.992341 0.0904576 -0.0841193
    length 18.5862
    axis -91.4558 4.82538 174.792 xyz
    dof rx ry rz
  end
  begin
    id 22
    name lFoot
    direction 0.0209381 -0.999771 -0.00453005
    length 8.44474
    axis 4.86759 0.259522 -88.8001 xyz
    dof rx ry rz
  end
  begin
    id 23
    name rThighDummy
    direction -0.236086 -0.0385456 0.970967
    length 4.99155
    axis 0 0 0 xyz
  end
  begin
    id 24
    name rThigh
    direction -0.993968 0.0148995 0.108653
    length 13.5721
    axis -89.7059 -6.2377 179.141 xyz
    dof rx ry rz
  end
  begin
    id 25
    name rShin
    direction -0.9925 0.0899962 0.0827255
    length 18.6716
    axis -89.2745 -4.74775 174.819 xyz
    dof rx ry rz
  end
  begin
    id 26
    name rFoot
    direction 0.0301721 -0.999545 9.70865e-005
    length 8.45013
    axis -2.50066e-005 -0.00555246 -88.271 xyz
    dof rx ry rz
  end
:hierarchy
  begin
    root abdomenDummy lThighDummy rThighDummy
    abdomenDummy abdomen
    abdomen chest
    chest neckDummyDummy lCollarDummy rCollarDummy
    neckDummyDummy neckDummy
    neckDummy neck
    neck head
    head figureHair
    lCollarDummy lCollar
    lCollar lShldr
    lShldr lForeArm
    lForeArm lHand
    rCollarDummy rCollar
    rCollar rShldr
    rShldr rForeArm
    rForeArm rHand
    lThighDummy lThigh
    lThigh lShin
    lShin lFoot
    rThighDummy rThigh
    rThigh rShin
    rShin rFoot
  end

:SAMPLES-PER-SECOND 25
:FULLY-SPECIFIED
:DEGREES
175
root  3.94908 36.9655 2.94759 170.616 -5.10371 92.1163
abdomen  0.266876 -6.83895 -4.32831
chest  0.72359 0.550275 -14.9652
neckDummy  9.09964e-021 0 8.72668e-016
neck  0.479301 10.107 -22.9205
head  0.0269731 -5.25037 -14.9734
figureHair  0 1.51661e-021 -9.5315e-016
lCollar  -5.15695e-016 -6.42944e-016 -7.59357e-014
lShldr  -18.9572 14.9093 -73.2264
lForeArm  -114.423 -83.0615 161.078
lHand  0.254698 0.195082 5.2986
rCollar  1.7976e-016 -5.12864e-014 1.62755e-015
rShldr  -12.8338 68.7022 -25.3633
rForeArm  77.1732 0.221173 69.7873
rHand  -11.6997 -45.7686 31.1114
lThigh  -6.64034 -12.6942 -2.07301
lShin  -21.8799 13.9414 -4.65886
lFoot  15.8607 -2.1017 2.27061
rThigh  0.038709 -13.3231 -5.36664
rShin  -42.127 17.9601 -4.26485
rFoot  25.0733 -1.11442 -13.8942
176
root  3.91994 36.9359 3.02578 170.905 -4.85844 91.5282
abdomen  0.0968503 -6.29945 -4.68592
chest  0.448296 -0.156866 -14.919
neckDummy  9.09964e-021 0 8.72668e-016
neck  0.0765113 9.94877 -23.5479
head  -0.301734 -5.43043 -14.96
figureHair  0 1.51661e-021 -9.5315e-016
lCollar  -5.15695e-016 -6.42944e-016 -7.59357e-014
lShldr  -19.189 14.2184 -72.9255
lForeArm  -115.291 -82.806 161.726
lHand  0.254698 0.195082 5.2986
rCollar  1.7976e-016 -5.12864e-014 1.62755e-015
rShldr  -14.2146 68.2061 -26.8279
rForeArm  77.1336 0.253764 68.2701
rHand  -11.5471 -45.6474 30.8468
lThigh  -6.46231 -11.9962 -2.51773
lShin  -21.8092 13.7251 -4.80281
lFoot  15.9446 -2.1147 2.28277
rThigh  -3.9515 -15.5388 -5.96146
rShin  -39.1303 21.9016 -2.57811
rFoot  27.0033 -0.857458 -15.5404
177
root  3.87527 36.8945 3.13136 171.157 -4.50369 90.6192
abdomen  -0.0809633 -5.80961 -5.19536
chest  0.171116 -0.81051 -15.102
neckDummy  9.09964e-021 0 8.72668e-016
neck  -0.208667 10.3886 -23.8764
head  -0.573876 -5.60359 -15.1127
figureHair  0 1.51661e-021 -9.5315e-016
lCollar  -5.15695e-016 -6.42944e-016 -7.59357e-014
lShldr  -19.2774 13.4996 -72.6334
lForeArm  -116.247 -82.4511 162.55
lHand  0.254698 0.195082 5.2986
rCollar  1.7976e-016 -5.12864e-014 1.62755e-015
rShldr  -15.2098 67.7244 -27.9895
rForeArm  76.7687 0.281477 66.9717
rHand  -11.2814 -45.4987 30.3462
lThigh  -6.28995 -10.8475 -3.09228
lShin  -21.8528 13.3325 -5.09919
lFoot  16.2313 -2.15979 2.32817
rThigh  -6.04903 -18.3758 -6.45112
rShin  -38.2677 26.8206 -1.72251
rFoot  29.2563 -0.362355 -18.1669
178
root  3.84067 36.8468 3.26362 171.632 -4.00786 89.5883
abdomen  -0.35146 -5.30221 -5.94439
chest  -0.204058 -1.46958 -15.1237
neckDummy  9.09964e-021 0 8.72668e-016
neck  -0.348936 11.0395 -24
head  -0.727097 -5.81003 -15.2886
figureHair  0 1.51661e-021 -9.5315e-016
lCollar  -5.15695e-016 -6.42944e-016 -7.59357e-014
lShldr  -19.2219 12.7125 -72.2036
lForeArm  -116.905 -82.197 163.093
lHand  0.254698 0.195082 5.2986
rCollar  1.7976e-016 -5.12864e-014 1.62755e-015
rShldr  -16.5013 67.2457 -29.7744
rForeArm  76.353 0.297104 66.2363
rHand  -10.9671 -45.3869 29.7128
lThigh  -5.96808 -9.5573 -3.91195
lShin  -21.8505 12.7685 -5.41304
lFoot  16.7944 -2.22486 2.25509
rThigh  -6.443 -21.6568 -6.75785
rShin  -38.427 32.3839 -1.88034
rFoot  31.3977 0.503492 -22.1721
179
root  3.83527 36.7949 3.42197 172.033 -3.39217 88.5588
abdomen  -0.645483 -4.87438 -6.99871
chest  -0.601268 -2.01069 -14.8746
neckDummy  9.09964e-021 0 8.72668e-016
neck  -0.35745 11.7311 -23.8951
head  -0.776214 -6.05795 -15.3169
figureHair  0 1.51661e-021 -9.5315e-016
lCollar  -5.15695e-016 -6.42944e-016 -7.59357e-014
lShldr  -19.242 11.9386 -71.76
lForeArm  -117.357 -82.0746 163.341
lHand  0.254698 0.195082 5.2986
rCollar  1.7976e-016 -5.12864e-014 1.62755e-015
rShldr  -18.1135 66.6775 -31.7739
rForeArm  75.6939 0.305329 65.8486
rHand  -10.7 -45.2543 29.1915
lThigh  -5.55762 -8.25984 -4.90981
lShin  -21.987 12.0601 -5.71351
lFoot  17.3934 -2.27814 2.08106
rThigh  -6.88814 -25.343 -6.80627
rShin  -36.6135 38.3498 -1.98503
rFoot  32.9468 1.81778 -27.8471
180
root  3.85391 36.7372 3.59373 172.085 -2.72398 87.6249
abdomen  -0.880748 -4.72521 -8.16526
chest  -0.90211 -2.13217 -14.6461
neckDummy  9.09964e-021 0 8.72668e-016
neck  -0.271601 12.1728 -23.4668
head  -0.770635 -5.98635 -15.2934
figureHair  0 1.51661e-021 -9.5315e-016
lCollar  -5.15695e-016 -6.42944e-016 -7.59357e-014
lShldr  -19.3363 11.3111 -71.3578
lForeArm  -117.835 -82.0185 163.452
lHand  0.254698 0.195082 5.2986
rCollar  1.7976e-016 -5.12864e-014 1.62755e-015
rShldr  -19.6473 66.2016 -33.441
rForeArm  75.1303 0.313869 65.4455
rHand  -10.4808 -45.1014 28.7847
lThigh  -5.27817 -6.99259 -5.86876
lShin  -22.3761 11.2827 -6.11247
lFoot  17.8715 -2.31901 1.93915
rThigh  -7.11447 -29.2525 -6.44763
rShin  -32.4836 44.3771 -2.11546
rFoot  32.4255 3.22022 -34.8985
181
root  3.89009 36.6972 3.77015 171.925 -2.20178 86.9855
abdomen  -1.10662 -5.09816 -9.10446
chest  -1.13654 -1.85833 -14.4977
neckDummy  9.09964e-021 0 8.72668e-016
neck  -0.147871 12.3279 -22.9957
head  -0.729642 -5.61745 -15.3225
figureHair  0 1.51661e-021 -9.5315e-016
lCollar  -5.15695e-016 -6.42944e-016 -7.59357e-014
lShldr  -19.3177 10.889 -71.092
lForeArm  -117.853 -82.1194 163.251
lHand  0.254698 0.195082 5.2986
rCollar  1.7976e-016 -5.12864e-014 1.62755e-015
rShldr  -21.0115 65.916 -34.9492
rForeArm  74.8522 0.323913 64.9704
rHand  -10.1892 -44.9322 28.2196
lThigh  -5.13412 -5.98353 -6.59373
lShin  -22.7801 10.4057 -6.55446
lFoot  18.338 -2.34528 1.72251
rThigh  -6.81056 -33.0937 -5.56012
rShin  -26.2886 49.8599 -2.2681
rFoot  27.6308 3.56792 -42.4709
